<svg version="1.1" id="Layer_1" xmlns="http://www.w3.org/2000/svg" xmlns:xlink="http://www.w3.org/1999/xlink" x="0px" y="0px" viewBox="0 0 638 616" style="enable-background:new 0 0 638 616;" xml:space="preserve">
<g fill="#FFF">
	<path d="M142.1,374.4c-25.3,0-48,15.8-57,39.5c-0.6-0.1-1.3-0.2-2-0.2c-44.6,0-80.9,36.3-80.9,80.9c0,44.6,36.3,80.9,80.9,80.9
		c0.7,0,1.4-0.1,2-0.2c9.1,23.7,31.7,39.5,57,39.5c33.8,0,61.3-27.5,61.3-61.3v-118C203.3,401.9,175.8,374.4,142.1,374.4z
		 M124.7,435.7c0-9.6,7.8-17.4,17.4-17.4c9.6,0,17.3,7.8,17.3,17.4v118c0,9.6-7.8,17.4-17.3,17.4c-9.6,0-17.4-7.8-17.4-17.4V435.7z"/>
	<path d="M573,371.3c-1.5,5.7-0.6,11.6,2.4,16.6c3,5,7.8,8.6,13.4,10c1.7,0.5,3.6,0.7,5.4,0.7c10.1,0,18.8-6.8,21.3-16.6
		C646.8,259,597.7,127.7,493.4,55.4C442.2,19.9,381.9,1.1,319,1.1c-62.9,0-123.2,18.8-174.4,54.3C40.3,127.7-8.8,259,22.4,382.1
		c2.5,9.8,11.2,16.6,21.3,16.6c1.8,0,3.7-0.2,5.4-0.7c5.7-1.4,10.5-5,13.5-10c3-5,3.9-11,2.4-16.7C38.3,265.9,80.3,153.5,169.6,91.5
		C213.4,61.1,265.1,45,319,45c53.9,0,105.5,16.1,149.4,46.5C557.7,153.4,599.7,265.9,573,371.3z"/>
	<path d="M554.9,413.7c-0.7,0-1.4,0.1-2,0.2c-9.1-23.7-31.8-39.5-57-39.5c-33.8,0-61.3,27.5-61.3,61.3v118
		c0,33.8,27.5,61.3,61.3,61.3c25.2,0,47.9-15.8,57-39.5c0.6,0.1,1.3,0.2,2,0.2c44.6,0,80.9-36.3,80.9-80.9
		C635.9,450,599.6,413.7,554.9,413.7z M478.6,435.7c0-9.6,7.8-17.4,17.4-17.4c9.6,0,17.4,7.8,17.4,17.4v118
		c0,9.6-7.8,17.4-17.4,17.4c-9.6,0-17.4-7.8-17.4-17.4V435.7z"/>
</g>
</svg>
