<svg version="1.1" id="Layer_1" xmlns="http://www.w3.org/2000/svg" xmlns:xlink="http://www.w3.org/1999/xlink" x="0px" y="0px" viewBox="0 0 618 618" style="enable-background:new 0 0 618 618;" xml:space="preserve">
<path fill="#FFF" d="M309,615c168.7,0,306-137.3,306-306C615,140.3,477.7,3,309,3C140.3,3,3,140.3,3,309C3,477.7,140.3,615,309,615z M570.2,309
	c0,144-117.2,261.2-261.2,261.2c-27.9,0-54.8-4.4-80-12.5l160-136.5c6.5-4.7,12.6-9.9,18.3-15.6l0.1-0.1l0,0
	c24.4-24.9,39.5-59,39.5-96.5c0-35.8-13.7-68.4-36.1-92.9h142.4C564.2,245,570.2,276.3,570.2,309z M218.2,329.3
	c-1.5-6.5-2.3-13.3-2.3-20.3c0-50.5,40.4-91.7,90.6-93v0.1h7.9c48.8,2.8,87.7,43.4,87.7,92.9c0,24.7-9.7,47.1-25.4,63.8L361.1,386
	c-14.9,10.1-32.8,16-52.1,16c-37.9,0-70.5-22.7-85-55.3l0.1,0L218.2,329.3z M309,47.8c93.5,0,175.7,49.4,221.9,123.5H315.6
	c-2.2-0.1-4.4-0.2-6.6-0.2c-51.7,0-96.7,28.6-120.3,70.7l-45.5-134.6C188.3,70.1,246.1,47.8,309,47.8z M107.8,142.6l67.3,199.1
	c13.3,54.7,59.4,96.7,116.2,104l-108.1,92.2C102.5,493.4,47.8,407.5,47.8,309C47.8,245.8,70.3,187.8,107.8,142.6z"/>
</svg>
